<?xml version="1.0" encoding="iso-8859-1"?>
<!-- Generator: Adobe Illustrator 19.0.0, SVG Export Plug-In . SVG Version: 6.00 Build 0)  -->
<!-- License: CC0. Made by SVG Repo: https://www.svgrepo.com/svg/210537/floppy-disk-save -->
<svg version="1.1" id="Layer_1" xmlns="http://www.w3.org/2000/svg" xmlns:xlink="http://www.w3.org/1999/xlink" x="0px" y="0px"
	 viewBox="0 0 512 512" style="enable-background:new 0 0 512 512;" xml:space="preserve">
<polygon style="fill:#509299;" points="503.742,503.742 437.115,503.742 256,459.699 74.884,503.742 8.258,503.742 8.258,8.258 
	120.017,8.258 256,52.301 391.983,8.258 437.677,8.258 503.742,74.327 "/>
<polygon style="fill:#B4E5EA;" points="120.017,8.258 120.017,211.957 391.983,211.957 391.983,8.258 347.94,8.258 301.97,30.28 
	256,8.258 "/>
<rect x="256" y="8.258" style="fill:#1B4145;" width="91.94" height="159.656"/>
<polygon style="fill:#F9F7F7;" points="437.116,345.617 437.116,503.742 74.884,503.742 74.884,345.617 256,323.595 "/>
<path style="fill:#6FC5D6;" d="M437.116,324.696v20.92H74.884v-20.92c0-18.85,15.283-34.133,34.133-34.133h293.965
	C421.833,290.563,437.116,305.846,437.116,324.696z"/>
<path d="M402.985,282.304H169.729c-4.561,0-8.258,3.696-8.258,8.258c0,4.562,3.697,8.258,8.258,8.258h233.256
	c14.268,0,25.875,11.608,25.875,25.875v12.662H83.14v-12.662c0-14.268,11.608-25.875,25.875-25.875h27.681
	c4.561,0,8.258-3.696,8.258-8.258c0-4.562-3.697-8.258-8.258-8.258h-27.681c-23.375,0-42.391,19.017-42.391,42.391V470.71
	c0,4.562,3.697,8.258,8.258,8.258c4.561,0,8.258-3.696,8.258-8.258V353.874h345.72V470.71c0,4.562,3.697,8.258,8.258,8.258
	c4.561,0,8.258-3.696,8.258-8.258V324.695C445.376,301.32,426.359,282.304,402.985,282.304z"/>
<path d="M509.581,68.488L443.516,2.419C441.968,0.87,439.867,0,437.677,0H8.258C3.697,0,0,3.696,0,8.258v495.484
	C0,508.304,3.697,512,8.258,512h495.484c4.561,0,8.258-3.696,8.258-8.258V74.327C512,72.137,511.13,70.036,509.581,68.488z
	 M128.275,16.516h119.467v151.398c0,4.562,3.697,8.258,8.258,8.258h91.94c4.561,0,8.258-3.696,8.258-8.258V16.516h27.527v187.183
	H128.275V16.516z M264.258,16.516h75.424v143.14h-75.424V16.516z M495.484,495.484H16.516V16.516h95.243v195.441
	c0,4.562,3.697,8.258,8.258,8.258h271.966c4.561,0,8.258-3.696,8.258-8.258V16.516h34.016l61.228,61.231V495.484z"/>
</svg>
